<?xml version="1.0" encoding="utf-8"?>
<!-- Generator: Adobe Illustrator 19.2.1, SVG Export Plug-In . SVG Version: 6.00 Build 0)  -->
<svg version="1.1" id="Layer_1" xmlns="http://www.w3.org/2000/svg" xmlns:xlink="http://www.w3.org/1999/xlink" x="0px" y="0px"
	 viewBox="0 0 45 45" style="enable-background:new 0 0 45 45;" xml:space="preserve">
<style type="text/css">
	.st0{fill:#F7F8F8;}
	.st1{fill:#FFFFFF;}
	.st2{fill:none;stroke:#E0E0E0;stroke-miterlimit:10;}
	.st3{fill:#2DAADA;}
	.st4{fill:#AEADAE;}
	.st5{fill:#0B6C99;}
	.st6{fill:#EBF2CB;}
	.st7{fill:#B8DDF2;}
	.st8{fill:#EDE7E4;}
	.st9{fill:none;}
	.st10{fill:#F4F2EA;}
	.st11{fill:#C1C1BE;}
	.st12{fill:#FAF8F5;}
	.st13{fill:#A29F9C;}
	.st14{fill:#CCCCCC;}
	.st15{fill:#999999;}
	.st16{fill:#666766;}
	.st17{fill:#636362;}
	.st18{fill:#4D4D4E;}
	.st19{fill:#0C84BA;}
	.st20{fill:none;stroke:#1D7BA9;stroke-miterlimit:10;}
	.st21{fill:#828282;}
	.st22{opacity:0.5;fill:none;stroke:#25A0DB;stroke-miterlimit:10;}
	.st23{fill:#1596C9;}
	.st24{opacity:0.5;}
	.st25{fill:#8ECAE1;}
	.st26{fill:none;stroke:#F7F8F8;stroke-miterlimit:10;}
	.st27{fill:#454545;}
	.st28{opacity:0.5;fill:none;stroke:#BCBEC0;stroke-width:0.657;stroke-miterlimit:10;}
	.st29{opacity:0.2;fill:none;stroke:#828282;stroke-width:0.75;stroke-miterlimit:10;}
	.st30{opacity:0.2;}
	.st31{opacity:0.4;}
	.st32{fill:none;stroke:#25A0DB;stroke-width:2;stroke-miterlimit:10;}
	.st33{fill:none;stroke:#25A0DB;stroke-miterlimit:10;}
	.st34{fill:none;stroke:#25A0DB;stroke-width:2;stroke-linecap:round;stroke-linejoin:round;stroke-miterlimit:10;}
	.st35{fill:none;stroke:#25A0DB;stroke-linecap:round;stroke-linejoin:round;stroke-miterlimit:10;}
	.st36{fill:none;stroke:#25A0DB;stroke-width:2;stroke-linecap:round;stroke-miterlimit:10;}
	.st37{fill:#25A0DB;}
	.st38{opacity:0.3;fill:none;stroke:#828282;stroke-miterlimit:10;}
	.st39{fill:#8ECAE1;stroke:#FFFFFF;stroke-width:2;stroke-miterlimit:10;}
	.st40{fill:#AAD0E9;stroke:#FFFFFF;stroke-width:2;stroke-miterlimit:10;}
	.st41{fill:#B4E3F4;}
	.st42{fill:none;stroke:#1596C9;stroke-width:3;stroke-linecap:round;stroke-linejoin:round;stroke-miterlimit:10;}
	.st43{fill:none;stroke:#1596C9;stroke-width:1.5;stroke-linecap:round;stroke-linejoin:round;stroke-miterlimit:10;}
</style>
<g>
	<polygon class="st1" points="19.1,29.5 25.9,32.9 25.9,15.5 19.1,12.1 	"/>
	<polygon class="st1" points="11.5,32.6 17.6,29.5 17.6,12.1 11.5,15.1 	"/>
	<polygon class="st1" points="27.4,32.9 33.5,29.9 33.5,12.4 27.4,15.5 	"/>
	<path class="st1" d="M22.5,0C10.1,0,0,10.1,0,22.5C0,34.9,10.1,45,22.5,45S45,34.9,45,22.5C45,10.1,34.9,0,22.5,0z M36.5,30.8
		c0,0.6-0.3,1.1-0.8,1.3l-8.3,4.2c-0.4,0.2-0.9,0.2-1.3,0l-7.7-3.8l-7.7,3.8c-0.2,0.1-0.4,0.2-0.7,0.2c-0.3,0-0.5-0.1-0.8-0.2
		C8.8,36,8.5,35.5,8.5,35V14.2c0-0.6,0.3-1.1,0.8-1.3l8.3-4.2c0.4-0.2,0.9-0.2,1.3,0l7.7,3.8l7.7-3.8c0.5-0.2,1-0.2,1.5,0.1
		c0.4,0.3,0.7,0.8,0.7,1.3V30.8z"/>
</g>
</svg>
