<?xml version="1.0" encoding="utf-8"?>
<!-- Generator: Adobe Illustrator 19.2.1, SVG Export Plug-In . SVG Version: 6.00 Build 0)  -->
<!DOCTYPE svg PUBLIC "-//W3C//DTD SVG 1.1//EN" "http://www.w3.org/Graphics/SVG/1.1/DTD/svg11.dtd">
<svg version="1.1" xmlns="http://www.w3.org/2000/svg" xmlns:xlink="http://www.w3.org/1999/xlink" x="0px" y="0px"
	 viewBox="0 0 41 38.1" enable-background="new 0 0 41 38.1" xml:space="preserve">
<g id="Layer_1">
</g>
<g id="Layer_2">
	<g>
		<path fill="#259FDA" d="M40,36.3H27c-0.6,0-1-0.4-1-1s0.4-1,1-1h13c0.6,0,1,0.4,1,1S40.6,36.3,40,36.3z"/>
		<path fill="#259FDA" d="M10.2,21.5c-0.3,0-0.6-0.1-0.8-0.4c-1.6-2.3-2.5-5-2.5-7.8C6.9,6,12.9,0,20.2,0s13.3,6,13.3,13.3
			c0,2.6-0.8,5.1-2.2,7.3c-0.3,0.5-0.9,0.6-1.4,0.3c-0.5-0.3-0.6-0.9-0.3-1.4c1.2-1.8,1.9-4,1.9-6.2C31.6,7.1,26.5,2,20.2,2
			S8.9,7.1,8.9,13.3c0,2.4,0.7,4.7,2.1,6.6c0.3,0.4,0.2,1.1-0.2,1.4C10.6,21.5,10.4,21.5,10.2,21.5z"/>
		<path fill="#259FDA" d="M20.2,38.1c-0.3,0-0.7-0.2-0.9-0.5l-10.9-18c-0.3-0.5-0.1-1.1,0.3-1.4c0.5-0.3,1.1-0.1,1.4,0.3l10.1,16.6
			l10.1-16.6c0.3-0.5,0.9-0.6,1.4-0.3c0.5,0.3,0.6,0.9,0.3,1.4l-10.9,18C20.9,37.9,20.6,38.1,20.2,38.1z"/>
		<path fill="#259FDA" d="M14,36.3H1c-0.6,0-1-0.4-1-1s0.4-1,1-1h13c0.6,0,1,0.4,1,1S14.6,36.3,14,36.3z"/>
		<path fill="#259FDA" d="M20.2,19.5c-3.2,0-5.9-2.6-5.9-5.9c0-3.2,2.6-5.9,5.9-5.9c3.2,0,5.9,2.6,5.9,5.9
			C26.1,16.9,23.5,19.5,20.2,19.5z M20.2,8.8c-2.7,0-4.9,2.2-4.9,4.9c0,2.7,2.2,4.9,4.9,4.9c2.7,0,4.9-2.2,4.9-4.9
			C25.1,11,22.9,8.8,20.2,8.8z"/>
	</g>
</g>
</svg>
