<?xml version="1.0" encoding="utf-8"?>
<!-- Generator: Adobe Illustrator 23.0.6, SVG Export Plug-In . SVG Version: 6.00 Build 0)  -->
<svg version="1.1" id="Layer_1" xmlns="http://www.w3.org/2000/svg" xmlns:xlink="http://www.w3.org/1999/xlink" x="0px" y="0px"
	 viewBox="0 0 42 42" enable-background="new 0 0 42 42" xml:space="preserve">
<path fill="#25A0DB" d="M41.5,0.2c-0.3-0.2-0.7-0.2-1,0L27.7,6.6L14.8,0.1c-0.3-0.1-0.6-0.1-0.9,0L0.6,6.8C0.2,7,0,7.3,0,7.7V41
	c0,0.3,0.2,0.7,0.5,0.9s0.7,0.2,1,0l12.9-6.4l12.9,6.4c0.1,0.1,0.3,0.1,0.4,0.1s0.3,0,0.4-0.1l13.3-6.7c0.3-0.2,0.6-0.5,0.6-0.9V1
	C42,0.7,41.8,0.3,41.5,0.2z M14.8,2.4l12.3,6.2v31.1l-12.3-6.2V2.4z M2,8.3l11.8-5.9v31.1L2,39.4V8.3z M40,33.7l-11.8,5.9v-31
	l11.8-6V33.7z"/>
<g>
	<g>
		<path fill="#259FDA" d="M137,64.5c-3.2,0-5.9-2.6-5.9-5.9c0-3.2,2.6-5.9,5.9-5.9c3.2,0,5.9,2.6,5.9,5.9
			C142.9,61.9,140.3,64.5,137,64.5z M137,53.8c-2.7,0-4.9,2.2-4.9,4.9s2.2,4.9,4.9,4.9s4.9-2.2,4.9-4.9S139.7,53.8,137,53.8z"/>
	</g>
</g>
</svg>
