<?xml version="1.0" encoding="utf-8"?>
<!-- Generator: Adobe Illustrator 19.2.1, SVG Export Plug-In . SVG Version: 6.00 Build 0)  -->
<!DOCTYPE svg PUBLIC "-//W3C//DTD SVG 1.1//EN" "http://www.w3.org/Graphics/SVG/1.1/DTD/svg11.dtd">
<svg version="1.1" id="Layer_1" xmlns="http://www.w3.org/2000/svg" xmlns:xlink="http://www.w3.org/1999/xlink" x="0px" y="0px"
	 viewBox="0 0 159.7 166.7" enable-background="new 0 0 159.7 166.7" xml:space="preserve">
<path fill="#B8E191" d="M97.4,58.5c-1.6-1.5-1.8-4-0.5-5.9c2.1-3.1,3.3-6.7,3.3-10.7c0-5.2-2.1-9.9-5.4-13.3
	c-1.1-1.1-1.3-2.8-0.5-4.1c1.7-2.9,2.5-6.4,1.9-10.1C95.2,7.6,89.7,2.4,83,1.6c-9.2-1-17,6.1-17,15.1c0,2.8,0.8,5.5,2.1,7.7
	c0.8,1.3,0.6,3-0.5,4.1c-3.4,3.4-5.4,8.1-5.4,13.3c0,4,1.2,7.7,3.3,10.7c1.3,1.9,1.1,4.4-0.6,5.9c-4.8,4.5-7.8,11.1-7.5,18.3
	C58,88.9,67.8,98.9,79.9,99.5c13.7,0.7,25.1-10.2,25.1-23.7C105,68.9,102.1,62.8,97.4,58.5z"/>
<g>
	<circle fill="#E3F2D4" cx="79.9" cy="86.8" r="79.9"/>
	<path fill="#B8E191" d="M56.3,58.8c-0.2-0.2-0.4-0.4-0.7-0.6c-6.6-7.2-9.7-12.7-11.1-16c-0.4-0.9-1.7-0.9-2.1,0
		c-1.3,3.2-4.1,8.6-10.6,15.4c-0.3,0.3-0.5,0.5-0.8,0.8c-4.6,3.9-7.2,10-6.5,16.6c1,8.7,8,15.7,16.7,16.7
		c11.5,1.3,21.2-7.7,21.2-18.9C62.4,67.3,60.1,62.3,56.3,58.8z"/>
	<path fill="#78BB4C" d="M55.9,59.6c-0.2-0.2-0.4-0.4-0.7-0.6c-6.6-7.2-9.7-12.7-11.1-16c-0.4-0.9-1.7-0.9-2.1,0
		c-1.3,3.2-4.1,8.6-10.6,15.4c-0.3,0.3-0.5,0.5-0.8,0.8c-4.6,3.9-7.2,10-6.5,16.6c1,8.7,8,15.7,16.7,16.7
		c11.5,1.3,21.2-7.7,21.2-18.9C62.1,68,59.7,63,55.9,59.6z"/>
	<path fill="#444444" d="M43,92.9c-0.8,0-1.5,0-2.3-0.1c-9.4-1-17-8.6-18-18c-0.8-6.8,1.8-13.5,7-17.9c0.3-0.2,0.5-0.4,0.7-0.7
		c6.2-6.5,9-11.7,10.3-14.9c0.4-1,1.3-1.7,2.4-1.7c1.1,0,2,0.6,2.5,1.6c1.4,3.3,4.4,8.6,10.8,15.5c0.2,0.2,0.4,0.4,0.6,0.6l0,0
		c4.2,3.9,6.6,9.4,6.6,15.1c0,5.8-2.5,11.4-6.8,15.3C52.9,91.1,48,92.9,43,92.9z M43.1,43.2c-1.5,3.5-4.5,8.7-10.6,15
		c-0.3,0.3-0.6,0.6-0.9,0.9c-4.4,3.8-6.6,9.5-6,15.3c0.9,8,7.4,14.5,15.4,15.3c5.1,0.6,9.9-1,13.7-4.3c3.7-3.3,5.8-8.1,5.8-13
		c0-4.9-2.1-9.5-5.7-12.9l0,0c-0.3-0.2-0.5-0.5-0.7-0.7C47.9,52.1,44.8,46.7,43.1,43.2z"/>
	<path fill="#B8E191" d="M127.1,57.7c-0.2-0.2-0.4-0.4-0.7-0.6c-6.6-7.2-9.7-12.7-11.1-16c-0.4-0.9-1.7-0.9-2.1,0
		c-1.3,3.2-4.1,8.6-10.6,15.4c-0.3,0.3-0.5,0.5-0.8,0.8c-4.6,3.9-7.2,10-6.5,16.6c1,8.7,8,15.7,16.7,16.7
		c11.5,1.3,21.2-7.7,21.2-18.9C133.2,66.1,130.8,61.2,127.1,57.7z"/>
	<path fill="#78BB4C" d="M126.7,58.5c-0.2-0.2-0.4-0.4-0.7-0.6c-6.6-7.2-9.7-12.7-11.1-16c-0.4-0.9-1.7-0.9-2.1,0
		c-1.3,3.2-4.1,8.6-10.6,15.4c-0.3,0.3-0.5,0.5-0.8,0.8c-4.6,3.9-7.2,10-6.5,16.6c1,8.7,8,15.7,16.7,16.7
		c11.5,1.3,21.2-7.7,21.2-18.9C132.8,66.9,130.5,61.9,126.7,58.5z"/>
	<path fill="#444444" d="M113.8,91.8c-0.8,0-1.5,0-2.3-0.1c-9.4-1-17-8.6-18-18c-0.8-6.8,1.8-13.5,7-17.9c0.2-0.2,0.5-0.4,0.7-0.7
		c6.2-6.5,9-11.7,10.3-14.9c0.4-1,1.3-1.7,2.4-1.7c1.1,0,2,0.6,2.5,1.6c1.4,3.3,4.4,8.6,10.8,15.5c0.2,0.2,0.4,0.4,0.6,0.6l0,0
		c4.2,3.9,6.6,9.4,6.6,15.1c0,5.8-2.5,11.4-6.8,15.3C123.7,89.9,118.8,91.8,113.8,91.8z M113.9,42.1c-1.5,3.5-4.5,8.7-10.6,15
		c-0.3,0.3-0.6,0.6-0.9,0.9c-4.4,3.8-6.6,9.5-6,15.3c0.9,8,7.4,14.5,15.4,15.3c5.1,0.6,9.9-1,13.7-4.3c3.7-3.3,5.8-8.1,5.8-13
		c0-4.9-2.1-9.5-5.7-12.9c-0.3-0.2-0.5-0.5-0.7-0.7C118.7,51,115.5,45.6,113.9,42.1z"/>
	<g>
		<path fill="#444444" d="M113.1,127.5c-0.8,0-1.5-0.7-1.5-1.5V77c0-0.8,0.7-1.5,1.5-1.5s1.5,0.7,1.5,1.5v49
			C114.6,126.8,113.9,127.5,113.1,127.5z"/>
	</g>
	<path fill="#B9E094" d="M96.3,58.5c-1.6-1.5-1.8-4-0.5-5.9c2.1-3.1,3.3-6.7,3.3-10.7c0-5.2-2.1-9.9-5.4-13.3
		c-1.1-1.1-1.3-2.8-0.5-4.1c1.7-2.9,2.5-6.4,1.9-10.1c-1-6.7-6.5-11.9-13.2-12.7c-9.2-1-17,6.1-17,15.1c0,2.8,0.8,5.5,2.1,7.7
		c0.8,1.3,0.6,3-0.5,4.1c-3.4,3.4-5.4,8.1-5.4,13.3c0,4,1.2,7.7,3.3,10.7c1.3,1.9,1.1,4.4-0.6,5.9C59,63,56.1,69.6,56.4,76.8
		c0.5,12.1,10.3,22.1,22.4,22.7c13.7,0.7,25.1-10.2,25.1-23.7C103.8,68.9,100.9,62.8,96.3,58.5z"/>
	<path fill="#87C559" d="M77.4,98.5c13.7,0.7,25.1-10.2,25.1-23.7c0-6.9-2.9-13-7.6-17.3c-1.6-1.5-1.8-4-0.5-5.9
		c2.1-3.1,3.3-6.7,3.3-10.7c0-5.2-2.1-9.9-5.4-13.3c-1.1-1.1-1.3-2.8-0.5-4.1c1.7-2.9,2.5-6.4,1.9-10.1c-1-6.7-6.5-11.9-13.2-12.7"
		/>
	<g>
		<path fill="#444444" d="M45.1,127.5c-0.8,0-1.5-0.7-1.5-1.5V77c0-0.8,0.7-1.5,1.5-1.5s1.5,0.7,1.5,1.5v49
			C46.6,126.8,45.9,127.5,45.1,127.5z"/>
	</g>
	<path fill="#B9E094" d="M7.6,126.7c27.3-5,45.7,19,65,24.3c18.4,5.1,45.6-1.1,50.3-10.8c0.3-0.6,0-1.3-0.7-1.4l-10.5-3L61,119.6
		l-24-1.5C37,118.1,12.1,125.2,7.6,126.7z"/>
	<path fill="#444444" d="M117.1,138.9c-0.1,0-0.2,0-0.4,0c-7.6-1.9-16-4.8-24.9-8.4c-26.8-10.9-48.9-10.5-62.6-8.2
		c-14.9,2.4-23.7,7.5-23.7,7.6c-0.7,0.4-1.6,0.2-2.1-0.5c-0.4-0.7-0.2-1.6,0.5-2.1c0.4-0.2,36.3-20.9,89,0.5
		c8.8,3.6,17.1,6.4,24.6,8.3c0.8,0.2,1.3,1,1.1,1.8C118.3,138.5,117.7,138.9,117.1,138.9z"/>
	<path fill="#444444" d="M80.1,101.1c-0.5,0-0.9,0-1.4,0c-12.9-0.7-23.3-11.3-23.8-24.2c-0.3-7.3,2.6-14.4,8-19.4
		c1.1-1,1.3-2.7,0.4-4c-2.4-3.4-3.6-7.4-3.6-11.6c0-5.4,2.1-10.5,5.9-14.3c0.6-0.6,0.7-1.5,0.3-2.3c-1.5-2.6-2.3-5.5-2.3-8.5
		c0-4.8,2-9.3,5.6-12.5c3.5-3.2,8.3-4.7,13.1-4.1c7.4,0.8,13.4,6.6,14.6,14c0.6,3.9-0.1,7.8-2.1,11.1c-0.5,0.8-0.3,1.7,0.3,2.3
		c3.8,3.9,5.9,8.9,5.9,14.3c0,4.2-1.2,8.2-3.6,11.6c-0.9,1.3-0.7,2.9,0.3,3.9l0,0c5.1,4.8,8,11.5,8,18.4c0,7-2.8,13.5-7.9,18.3
		C92.7,98.6,86.6,101.1,80.1,101.1z M80.1,3c-3.4,0-6.6,1.2-9.1,3.5c-2.9,2.6-4.6,6.3-4.6,10.2c0,2.5,0.7,4.9,1.9,7
		c1.1,1.9,0.8,4.3-0.7,5.9c-3.2,3.3-5,7.6-5,12.2c0,3.5,1.1,7,3.1,9.9c1.7,2.5,1.4,5.8-0.8,7.9c-4.7,4.4-7.3,10.7-7,17.1
		c0.5,11.3,9.7,20.7,21,21.3c6.2,0.3,12.1-1.8,16.5-6.1c4.5-4.2,6.9-10,6.9-16.2c0-6.2-2.5-12-7.1-16.2c-2.2-2-2.5-5.3-0.8-7.8
		c2-2.9,3.1-6.3,3.1-9.9c0-4.6-1.8-8.9-5-12.2c-1.6-1.6-1.8-4-0.7-6c1.6-2.8,2.2-5.9,1.7-9.1c-0.9-6-5.9-10.8-11.9-11.4
		C81.2,3,80.6,3,80.1,3z"/>
	<path fill="#444444" d="M105.3,73.2c0.4,3.4,0.6,9.1,0.3,13.5c-2.4,0.6-3.5-2.5-3.5-2.5L105.3,73.2z"/>
	<g>
		<path fill="#444444" d="M79.1,138.5c-0.8,0-1.5-0.7-1.5-1.5V43c0-0.8,0.7-1.5,1.5-1.5s1.5,0.7,1.5,1.5v94
			C80.6,137.8,79.9,138.5,79.1,138.5z"/>
	</g>
	<g>
		<line fill="#FFFFFF" x1="78.6" y1="83.9" x2="68.3" y2="73.9"/>
		<path fill="#444444" d="M78.6,85.5c-0.4,0-0.8-0.2-1.2-0.5l-10.3-10c-0.7-0.6-0.7-1.7,0-2.4c0.6-0.7,1.7-0.7,2.4,0l10.3,10
			c0.7,0.6,0.7,1.7,0,2.4C79.5,85.4,79,85.5,78.6,85.5z"/>
	</g>
	<g>
		<line fill="#FFFFFF" x1="79.5" y1="71.7" x2="88" y2="63.2"/>
		<path fill="#444444" d="M79.5,73.3c-0.4,0-0.9-0.2-1.2-0.5c-0.7-0.7-0.7-1.7,0-2.4l8.5-8.5c0.7-0.7,1.7-0.7,2.4,0
			c0.7,0.7,0.7,1.7,0,2.4l-8.5,8.5C80.4,73.2,80,73.3,79.5,73.3z"/>
	</g>
	<path fill="#444444" d="M104.6,120.2c0,0-8.9,4.1-3,8.8c6,4.8,14,6.6,14,6.6l-30-9.4L104.6,120.2z"/>
	<path fill="#444444" d="M85.8,127.9c-0.5,0-1-0.3-1.3-0.8c-0.4-0.7-0.1-1.6,0.6-2c0.4-0.2,35.7-19.2,72.4-5.1
		c0.8,0.3,1.2,1.2,0.9,1.9c-0.3,0.8-1.2,1.2-1.9,0.9c-35.4-13.6-69.5,4.8-69.9,5C86.3,127.8,86.1,127.9,85.8,127.9z"/>
</g>
</svg>
