<?xml version="1.0" encoding="utf-8"?>
<!-- Generator: Adobe Illustrator 23.0.6, SVG Export Plug-In . SVG Version: 6.00 Build 0)  -->
<svg version="1.1" id="Layer_1" xmlns="http://www.w3.org/2000/svg" xmlns:xlink="http://www.w3.org/1999/xlink" x="0px" y="0px"
	 viewBox="0 0 42 42" enable-background="new 0 0 42 42" xml:space="preserve">
<g>
	<path fill="#25A0DB" d="M40.1,39.7l-6.8-6.8c1.6-1.1,2.7-2.9,2.7-5v-22c0-3.3-2.7-6-6-6H12c-3.3,0-6,2.7-6,6v22
		c0,2.1,1.1,3.9,2.7,5l-6.8,6.8c-0.4,0.4-0.4,1,0,1.4s1,0.4,1.4,0l7.4-7.4c0.4,0.1,0.9,0.2,1.3,0.2h18c0.4,0,0.9-0.1,1.3-0.1
		l7.4,7.4c0.2,0.2,0.5,0.3,0.7,0.3s0.5-0.1,0.7-0.3C40.5,40.7,40.5,40.1,40.1,39.7z M12,31.9c-2.2,0-4-1.8-4-4v-22c0-2.2,1.8-4,4-4
		h18c2.2,0,4,1.8,4,4v22c0,2.2-1.8,4-4,4H12z"/>
	<path fill="#25A0DB" d="M13.5,23.2c-1.7,0-3,1.3-3,3s1.3,3,3,3s3-1.3,3-3S15.2,23.2,13.5,23.2z M13.5,28.2c-1.1,0-2-0.9-2-2
		s0.9-2,2-2s2,0.9,2,2S14.6,28.2,13.5,28.2z"/>
	<path fill="#25A0DB" d="M28.5,23.2c-1.7,0-3,1.3-3,3s1.3,3,3,3s3-1.3,3-3S30.2,23.2,28.5,23.2z M28.5,28.2c-1.1,0-2-0.9-2-2
		s0.9-2,2-2s2,0.9,2,2S29.6,28.2,28.5,28.2z"/>
	<path fill="#25A0DB" d="M15,12.4h12c1.4,0,2.5-1.1,2.5-2.5v-2c0-1.4-1.1-2.5-2.5-2.5H15c-1.4,0-2.5,1.1-2.5,2.5v2
		C12.5,11.3,13.6,12.4,15,12.4z M13.5,7.9c0-0.8,0.7-1.5,1.5-1.5h12c0.8,0,1.5,0.7,1.5,1.5v2c0,0.8-0.7,1.5-1.5,1.5H15
		c-0.8,0-1.5-0.7-1.5-1.5V7.9z"/>
</g>
</svg>
